<svg width="196" height="56" viewBox="0 0 196 56" fill="none" xmlns="http://www.w3.org/2000/svg">
<path d="M94.523 14.915V41H87.271V26.607L82.35 41H76.282L71.324 26.496V41H64.072V14.915H72.841L79.39 31.861L85.791 14.915H94.523ZM97.4671 30.603C97.4671 28.457 97.8494 26.5823 98.6141 24.979C99.4034 23.3757 100.464 22.1423 101.796 21.279C103.153 20.4157 104.657 19.984 106.31 19.984C107.741 19.984 108.974 20.2677 110.01 20.835C111.046 21.4023 111.848 22.167 112.415 23.129V20.243H119.667V41H112.415V38.114C111.848 39.076 111.034 39.8407 109.973 40.408C108.937 40.9753 107.716 41.259 106.31 41.259C104.657 41.259 103.153 40.8273 101.796 39.964C100.464 39.1007 99.4034 37.8673 98.6141 36.264C97.8494 34.636 97.4671 32.749 97.4671 30.603ZM112.415 30.603C112.415 29.271 112.045 28.2227 111.305 27.458C110.59 26.6933 109.702 26.311 108.641 26.311C107.556 26.311 106.655 26.6933 105.94 27.458C105.225 28.198 104.867 29.2463 104.867 30.603C104.867 31.935 105.225 32.9957 105.94 33.785C106.655 34.5497 107.556 34.932 108.641 34.932C109.702 34.932 110.59 34.5497 111.305 33.785C112.045 33.0203 112.415 31.9597 112.415 30.603ZM131.052 23.906C131.866 22.722 132.852 21.7847 134.012 21.094C135.171 20.4033 136.417 20.058 137.749 20.058V27.791H135.714C134.135 27.791 132.963 28.0993 132.199 28.716C131.434 29.3327 131.052 30.4057 131.052 31.935V41H123.8V20.243H131.052V23.906ZM144.011 18.319C142.729 18.319 141.693 17.9737 140.903 17.283C140.139 16.5677 139.756 15.6797 139.756 14.619C139.756 13.5337 140.139 12.6333 140.903 11.918C141.693 11.2027 142.729 10.845 144.011 10.845C145.269 10.845 146.281 11.2027 147.045 11.918C147.835 12.6333 148.229 13.5337 148.229 14.619C148.229 15.6797 147.835 16.5677 147.045 17.283C146.281 17.9737 145.269 18.319 144.011 18.319ZM147.6 20.243V41H140.348V20.243H147.6ZM150.546 30.603C150.546 28.457 150.99 26.5823 151.878 24.979C152.766 23.3757 154 22.1423 155.578 21.279C157.182 20.4157 159.007 19.984 161.054 19.984C163.694 19.984 165.914 20.7117 167.714 22.167C169.515 23.5977 170.674 25.608 171.192 28.198H163.496C163.052 26.8413 162.189 26.163 160.906 26.163C159.994 26.163 159.266 26.5453 158.723 27.31C158.205 28.05 157.946 29.1477 157.946 30.603C157.946 32.0583 158.205 33.1683 158.723 33.933C159.266 34.6977 159.994 35.08 160.906 35.08C162.214 35.08 163.077 34.4017 163.496 33.045H171.192C170.674 35.6103 169.515 37.6207 167.714 39.076C165.914 40.5313 163.694 41.259 161.054 41.259C159.007 41.259 157.182 40.8273 155.578 39.964C154 39.1007 152.766 37.8673 151.878 36.264C150.99 34.6607 150.546 32.7737 150.546 30.603ZM183.862 41.259C181.79 41.259 179.927 40.8273 178.275 39.964C176.647 39.1007 175.364 37.8673 174.427 36.264C173.489 34.6607 173.021 32.7737 173.021 30.603C173.021 28.457 173.489 26.5823 174.427 24.979C175.389 23.3757 176.684 22.1423 178.312 21.279C179.964 20.4157 181.827 19.984 183.899 19.984C185.971 19.984 187.821 20.4157 189.449 21.279C191.101 22.1423 192.396 23.3757 193.334 24.979C194.296 26.5823 194.777 28.457 194.777 30.603C194.777 32.749 194.296 34.636 193.334 36.264C192.396 37.8673 191.101 39.1007 189.449 39.964C187.796 40.8273 185.934 41.259 183.862 41.259ZM183.862 34.969C184.873 34.969 185.712 34.599 186.378 33.859C187.068 33.0943 187.414 32.009 187.414 30.603C187.414 29.197 187.068 28.124 186.378 27.384C185.712 26.644 184.885 26.274 183.899 26.274C182.912 26.274 182.086 26.644 181.42 27.384C180.754 28.124 180.421 29.197 180.421 30.603C180.421 32.0337 180.741 33.119 181.383 33.859C182.024 34.599 182.85 34.969 183.862 34.969Z" fill="white"/>
<path fill-rule="evenodd" clip-rule="evenodd" d="M0 27.0481V45.8481H16.424V43.1881L0 27.0481Z" fill="#326CF9"/>
<path fill-rule="evenodd" clip-rule="evenodd" d="M28.691 45.852H45.1131V27.052L28.6951 43.193L28.691 45.852Z" fill="#326CF9"/>
<path fill-rule="evenodd" clip-rule="evenodd" d="M45.115 3.844L22.605 25.971L0 3.75V22.87L22.605 45.091L45.111 22.968L45.115 3.844Z" fill="#326CF9"/>
</svg>
