<svg width="33" height="33" viewBox="0 0 33 33" fill="none" xmlns="http://www.w3.org/2000/svg">
<circle cx="16.5" cy="16.5002" r="16.5" fill="#2D2D2D"/>
<path d="M14.214 22.2102C15.366 21.2142 16.272 20.3982 16.932 19.7622C17.604 19.1142 18.162 18.4422 18.606 17.7462C19.05 17.0502 19.272 16.3542 19.272 15.6582C19.272 14.9382 19.098 14.3742 18.75 13.9662C18.414 13.5582 17.88 13.3542 17.148 13.3542C16.44 13.3542 15.888 13.5822 15.492 14.0382C15.108 14.4822 14.904 15.0822 14.88 15.8382H12.9C12.936 14.4702 13.344 13.4262 14.124 12.7062C14.916 11.9742 15.918 11.6082 17.13 11.6082C18.438 11.6082 19.458 11.9682 20.19 12.6882C20.934 13.4082 21.306 14.3682 21.306 15.5682C21.306 16.4322 21.084 17.2662 20.64 18.0702C20.208 18.8622 19.686 19.5762 19.074 20.2122C18.474 20.8362 17.706 21.5622 16.77 22.3902L15.96 23.1102H21.666V24.8202H12.918V23.3262L14.214 22.2102Z" fill="white"/>
</svg>
